PathFileType	4	(X/Y/Z)	1H_nor_slow_left.trc
DataRate	CameraRate	NumFrames	NumMarkers	Units	OrigDataRate	OrigDataStartFrame	OrigNumFrames
250.00	250.00	17	18	mm	250.00	12801	20480
Frame#	Time	c7	r_should	l_should	clavicle	r_upa	r_elb_l	r_elb_m	r_low	r_wri_l	r_wri_m	r_met	l_upa	l_elb_l	l_elb_m	l_low	l_wri_l	l_wri_m	l_met
	X1	Y1	Z1	X2	Y2	Z2	X3	Y3	Z3	X4	Y4	Z4	X5	Y5	Z5	X6	Y6	Z6	X7	Y7	Z7	X8	Y8	Z8	X9	Y9	Z9	X10	Y10	Z10	X11	Y11	Z11	X12	Y12	Z12	X13	Y13	Z13	X14	Y14	Z14	X15	Y15	Z15	X16	Y16	Z16	X17	Y17	Z17	X18	Y18	Z18
12801	51.20000	1210.43958	1427.19360	178.90895	1230.46118	1355.43103	351.94598	1260.46851	1364.30164	15.95258	1321.58215	1289.09729	190.69254	1220.45203	1147.98633	421.25861	1209.51562	1064.77966	444.72220	1145.47913	1035.70801	376.34604	1251.16418	943.57385	433.37411	1295.85693	831.33398	408.52200	1224.20166	814.69177	430.76163	1311.57324	762.85876	445.64386	1290.57507	1164.62366	-65.22990	1314.64050	1069.65112	-79.79739	1237.13452	1047.16418	-29.34470	1361.93591	973.86969	-32.26829	1402.38892	897.72009	49.31377	1360.04993	849.09583	2.26424	1455.43848	830.03259	53.80421
12802	51.20400	1210.35254	1427.17603	178.84619	1230.32764	1355.44775	351.89737	1260.46631	1364.26782	15.91048	1321.50818	1289.10217	190.68852	1220.33716	1148.00293	421.22025	1208.87817	1065.39368	444.63461	1145.41125	1035.70337	376.29208	1251.10681	943.60950	433.35025	1295.85291	831.37402	408.52637	1224.19714	814.72235	430.74454	1311.58484	762.91254	445.65805	1290.69641	1164.66968	-65.00247	1314.82715	1069.47998	-79.61110	1237.28015	1047.00061	-29.13760	1362.10938	973.28119	-32.57985	1402.37805	897.14148	49.25315	1359.92725	848.59302	2.09193	1455.31665	829.34204	53.54333
12803	51.20800	1210.26880	1427.16125	178.78807	1230.19788	1355.46460	351.84879	1260.46326	1364.23315	15.87291	1321.43530	1289.11096	190.67880	1220.22363	1148.01282	421.18341	1207.52429	1066.75745	444.46957	1145.35693	1035.69031	376.25211	1251.06055	943.65057	433.33884	1295.84644	831.42700	408.53766	1224.18835	814.74933	430.73499	1311.58704	762.97021	445.67874	1290.79712	1164.91357	-64.66869	1315.00476	1069.30701	-79.43204	1237.42920	1046.82812	-28.91366	1362.19727	972.85999	-32.60481	1402.37854	896.54291	49.17571	1359.79749	848.11237	1.91816	1455.19006	828.63898	53.27228
12804	51.21200	1210.18311	1427.15149	178.72977	1230.07031	1355.48596	351.80148	1260.45557	1364.19946	15.83176	1321.36658	1289.11682	190.67491	1220.10681	1148.03259	421.14197	1207.66931	1066.51440	444.47247	1145.29822	1035.68396	376.22131	1251.00281	943.68756	433.33435	1295.83423	831.48407	408.54489	1224.18457	814.78094	430.72781	1311.59192	763.03082	445.70560	1290.91504	1164.90662	-64.49012	1315.17834	1069.12134	-79.26089	1237.58081	1046.64404	-28.68276	1362.26257	972.49402	-32.57511	1402.39246	895.93280	49.08968	1359.68274	847.67084	1.74594	1455.06384	827.92981	53.00233
12805	51.21600	1210.09851	1427.13928	178.66856	1229.94116	1355.50574	351.75925	1260.44836	1364.16406	15.78955	1321.29736	1289.12659	190.67891	1219.98792	1148.06372	421.11322	1208.74524	1065.27502	444.58261	1145.23877	1035.68030	376.19473	1250.94116	943.73047	433.32608	1295.82068	831.54205	408.57767	1224.16101	814.81073	430.72272	1311.58972	763.09027	445.74051	1291.03687	1164.83557	-64.35332	1315.35486	1068.93738	-79.08257	1237.72717	1046.46777	-28.46431	1362.32947	972.15283	-32.52633	1402.41504	895.34894	49.01188	1359.54919	847.23602	1.57680	1454.93311	827.23083	52.74143
12806	51.22000	1210.01587	1427.13147	178.60538	1229.81226	1355.52551	351.71716	1260.44641	1364.12500	15.74693	1321.22925	1289.13403	190.68327	1219.85974	1148.09460	421.08383	1208.92761	1065.00195	444.60202	1145.17651	1035.68286	376.16031	1250.87732	943.77399	433.32300	1295.80518	831.61261	408.61423	1224.13953	814.84167	430.71585	1311.58215	763.14844	445.77701	1291.15979	1164.75378	-64.22551	1315.53589	1068.74915	-78.89854	1237.87305	1046.30530	-28.25762	1362.39478	971.81067	-32.46347	1402.44556	894.78882	48.92092	1359.41309	846.76428	1.38226	1454.80957	826.53357	52.48074
12807	51.22400	1209.93518	1427.12146	178.54510	1229.68250	1355.54749	351.67099	1260.44824	1364.08887	15.70637	1321.17065	1289.15088	190.68326	1219.73328	1148.12427	421.05151	1208.88574	1064.97522	444.59766	1145.11328	1035.68787	376.12589	1250.82471	943.81738	433.33118	1295.78857	831.67822	408.64926	1224.12280	814.88586	430.72177	1311.57202	763.21021	445.81766	1291.28284	1164.66187	-64.10078	1315.72424	1068.55261	-78.71141	1238.00867	1046.15015	-28.06830	1362.46094	971.45789	-32.40395	1402.46326	894.20221	48.80765	1359.31152	846.26581	1.19855	1454.69165	825.83405	52.21468
12808	51.22800	1209.85266	1427.11804	178.48462	1229.54700	1355.57678	351.62781	1260.45520	1364.05481	15.66910	1321.11328	1289.16528	190.69040	1219.62036	1148.15662	421.02112	1208.78809	1065.00305	444.57635	1145.04883	1035.68701	376.09094	1250.76819	943.87531	433.33966	1295.77380	831.74866	408.69659	1224.09814	814.93665	430.72678	1311.55652	763.27588	445.86511	1291.40906	1164.56555	-63.97780	1315.91223	1068.35669	-78.51553	1238.14209	1046.00122	-27.87903	1362.52502	971.10236	-32.33311	1402.48181	893.59174	48.69865	1359.20105	845.80865	0.99785	1454.57104	825.13214	51.94000
12809	51.23200	1209.77124	1427.11877	178.41983	1229.40869	1355.60498	351.58218	1260.45764	1364.02417	15.62922	1321.05688	1289.18127	190.69928	1219.50256	1148.19714	420.99661	1208.77551	1065.21509	444.59509	1144.98303	1035.68604	376.05945	1250.70544	943.93481	433.35663	1295.74280	831.81439	408.74850	1224.06775	814.98340	430.73935	1311.53516	763.34656	445.91553	1291.52661	1164.47058	-63.85806	1316.09900	1068.16162	-78.33044	1238.27295	1045.84375	-27.68890	1362.58459	970.75128	-32.28622	1402.49341	892.98865	48.62943	1359.07068	845.36261	0.78903	1454.44189	824.44189	51.65262
12810	51.23600	1209.69238	1427.11279	178.35979	1229.26636	1355.63306	351.53958	1260.45776	1363.99316	15.58481	1320.99817	1289.20178	190.71313	1219.37634	1148.23291	420.97568	1208.86987	1065.64978	444.66702	1144.91528	1035.69556	376.03256	1250.62390	943.99011	433.39276	1295.70288	831.87927	408.79160	1224.02832	815.01721	430.74887	1311.50562	763.41943	445.96567	1291.63464	1164.36902	-63.73940	1316.27747	1067.97339	-78.15858	1238.39868	1045.68555	-27.48925	1362.64185	970.39771	-32.23750	1402.09668	892.24310	48.52163	1358.94690	844.90765	0.60396	1454.31165	823.75116	51.36050
12811	51.24000	1209.61633	1427.10840	178.30168	1229.12695	1355.65906	351.49680	1260.46472	1363.96021	15.54972	1320.93665	1289.21863	190.72658	1219.24817	1148.27246	420.95471	1208.79297	1065.78870	444.67163	1144.98462	1035.40613	375.83307	1250.54187	944.04059	433.43127	1295.66101	831.94312	408.84091	1223.98328	815.04919	430.75366	1311.46948	763.48627	446.02353	1291.73877	1164.25854	-63.60900	1316.45288	1067.78235	-77.98454	1238.52893	1045.51697	-27.27778	1362.69592	970.03784	-32.17603	1401.16968	891.29437	48.38049	1358.83521	844.44110	0.41689	1454.18127	823.06256	51.06521
12812	51.24400	1209.54053	1427.10425	178.23431	1228.98718	1355.68188	351.44867	1260.46753	1363.92212	15.51508	1320.87720	1289.22815	190.74068	1219.12195	1148.30945	420.94708	1208.68091	1065.85620	444.65723	1145.21558	1034.74866	375.40851	1250.46082	944.09235	433.46329	1295.61401	832.00116	408.89581	1223.93408	815.08765	430.76593	1311.43018	763.55585	446.08673	1291.85388	1163.98560	-63.56408	1316.62512	1067.58386	-77.80994	1238.65723	1045.34131	-27.05818	1362.75403	969.66302	-32.12479	1400.92395	890.56781	48.25768	1358.72107	843.95184	0.19772	1454.05518	822.36084	50.77981
12813	51.24800	1209.46277	1427.09875	178.16776	1228.85352	1355.70581	351.41260	1260.48132	1363.87976	15.48125	1320.81592	1289.23804	190.75642	1218.99597	1148.34521	420.93735	1208.56470	1065.91492	444.63348	1145.20361	1034.59924	375.27054	1250.37891	944.14453	433.49939	1295.56091	832.05444	408.95312	1223.87598	815.12878	430.77887	1311.38013	763.62451	446.15656	1291.98083	1163.66980	-63.53922	1316.79016	1067.39026	-77.64172	1238.78259	1045.16199	-26.82472	1362.76355	969.40649	-31.90340	1400.84631	889.89954	48.13531	1358.58838	843.46637	-0.02281	1453.92664	821.65594	50.50084
12814	51.25200	1209.38452	1427.09521	178.10501	1228.72290	1355.73401	351.37225	1260.49451	1363.84436	15.45180	1320.75195	1289.24329	190.76476	1218.87134	1148.37390	420.92810	1208.44714	1065.94983	444.62589	1145.12976	1034.58337	375.21780	1250.29114	944.19489	433.53076	1295.50977	832.10443	409.01041	1223.81396	815.16260	430.80746	1311.32593	763.68750	446.22873	1292.07324	1163.80920	-63.24329	1316.96033	1067.20471	-77.46293	1238.90698	1044.99243	-26.58846	1362.70740	969.30054	-31.45039	1400.80042	889.27704	48.00514	1358.44397	843.02173	-0.22101	1453.78516	820.95099	50.19960
12815	51.25600	1209.30664	1427.08960	178.04823	1228.59644	1355.75928	351.33466	1260.50708	1363.80811	15.41924	1320.68201	1289.23804	190.77257	1218.74463	1148.40320	420.92459	1208.23022	1065.80444	444.58365	1145.03467	1034.59937	375.18683	1250.20581	944.23218	433.56076	1295.44824	832.15851	409.08557	1223.75696	815.20892	430.84808	1311.26624	763.74469	446.30548	1292.17957	1163.75525	-63.06662	1317.13953	1067.01782	-77.28056	1239.02417	1044.82349	-26.35604	1362.78125	968.89581	-31.47417	1400.75256	888.67444	47.90694	1358.29993	842.56659	-0.42493	1453.64624	820.25378	49.88107
12816	51.26000	1209.22949	1427.08350	177.99117	1228.47156	1355.78320	351.29907	1260.52783	1363.77612	15.39079	1320.61670	1289.23169	190.78174	1218.61194	1148.43445	420.92328	1207.97949	1065.62390	444.53674	1144.93420	1034.62207	375.17136	1250.10974	944.26154	433.59927	1295.38159	832.20343	409.16400	1223.68677	815.25482	430.88495	1311.20081	763.79846	446.38770	1292.29468	1163.65991	-62.92357	1317.31702	1066.82532	-77.09927	1239.13269	1044.66357	-26.13797	1362.93286	968.29523	-31.78342	1400.69629	888.04694	47.81499	1358.16663	842.08624	-0.63096	1453.49646	819.55188	49.55624
12817	51.26400	1209.15393	1427.08179	177.93048	1228.34790	1355.81348	351.26562	1260.54895	1363.74780	15.36311	1320.55200	1289.22864	190.79349	1218.48621	1148.46790	420.92059	1208.01819	1065.95520	444.58759	1144.83398	1034.64587	375.16595	1250.00781	944.29688	433.63370	1295.32056	832.23773	409.22134	1223.61279	815.29572	430.93872	1311.13696	763.85132	446.47504	1292.41272	1163.55847	-62.78873	1317.49744	1066.63440	-76.91219	1239.24463	1044.51501	-25.92992	1363.00232	967.86060	-31.81405	1400.63953	887.39124	47.68880	1358.02673	841.60718	-0.84638	1453.35376	818.84253	49.23850
